<?xml version="1.0" encoding="utf-8"?>
<!-- Generator: Adobe Illustrator 24.3.0, SVG Export Plug-In . SVG Version: 6.00 Build 0)  -->
<svg version="1.1" id="Layer_1" xmlns="http://www.w3.org/2000/svg" xmlns:xlink="http://www.w3.org/1999/xlink" x="0px" y="0px"
	 viewBox="0 0 143.1 103.45" style="enable-background:new 0 0 143.1 103.45;" xml:space="preserve">
<style type="text/css">
	.st0{opacity:0.4;}
	.st1{fill:#205F99;}
</style>
<g class="st0">
	<path class="st1" d="M131.5,13.33c-1.21,0-2.19-0.98-2.19-2.19c0-1.21,0.98-2.19,2.19-2.19c1.21,0,2.19,0.98,2.19,2.19
		C133.68,12.35,132.71,13.33,131.5,13.33z"/>
	<path class="st1" d="M131.5,33.01c-1.21,0-2.19-0.98-2.19-2.18c0-1.21,0.98-2.19,2.19-2.19c1.21,0,2.19,0.98,2.19,2.19
		C133.68,32.03,132.71,33.01,131.5,33.01z"/>
	<path class="st1" d="M131.5,52.69c-1.21,0-2.19-0.98-2.19-2.19c0-1.21,0.98-2.19,2.19-2.19c1.21,0,2.19,0.98,2.19,2.19
		C133.68,51.72,132.71,52.69,131.5,52.69z"/>
	<path class="st1" d="M131.5,72.38c-1.21,0-2.19-0.98-2.19-2.19c0-1.21,0.98-2.19,2.19-2.19c1.21,0,2.19,0.98,2.19,2.19
		C133.68,71.4,132.71,72.38,131.5,72.38z"/>
	<path class="st1" d="M131.5,92.06c-1.21,0-2.19-0.98-2.19-2.19c0-1.21,0.98-2.19,2.19-2.19c1.21,0,2.19,0.98,2.19,2.19
		C133.68,91.08,132.71,92.06,131.5,92.06z"/>
	<path class="st1" d="M111.82,13.33c-1.21,0-2.19-0.98-2.19-2.19c0-1.21,0.98-2.19,2.19-2.19c1.21,0,2.19,0.98,2.19,2.19
		C114,12.35,113.03,13.33,111.82,13.33z"/>
	<path class="st1" d="M111.82,33.01c-1.21,0-2.19-0.98-2.19-2.18c0-1.21,0.98-2.19,2.19-2.19c1.21,0,2.19,0.98,2.19,2.19
		C114,32.03,113.03,33.01,111.82,33.01z"/>
	<path class="st1" d="M111.82,52.69c-1.21,0-2.19-0.98-2.19-2.19c0-1.21,0.98-2.19,2.19-2.19c1.21,0,2.19,0.98,2.19,2.19
		C114,51.72,113.03,52.69,111.82,52.69z"/>
	<path class="st1" d="M111.82,72.38c-1.21,0-2.19-0.98-2.19-2.19c0-1.21,0.98-2.19,2.19-2.19c1.21,0,2.19,0.98,2.19,2.19
		C114,71.4,113.03,72.38,111.82,72.38z"/>
	<path class="st1" d="M111.82,92.06c-1.21,0-2.19-0.98-2.19-2.19c0-1.21,0.98-2.19,2.19-2.19c1.21,0,2.19,0.98,2.19,2.19
		C114,91.08,113.03,92.06,111.82,92.06z"/>
	<path class="st1" d="M92.13,13.33c-1.21,0-2.19-0.98-2.19-2.19c0-1.21,0.98-2.19,2.19-2.19c1.21,0,2.19,0.98,2.19,2.19
		C94.32,12.35,93.34,13.33,92.13,13.33z"/>
	<path class="st1" d="M92.13,33.01c-1.21,0-2.19-0.98-2.19-2.18c0-1.21,0.98-2.19,2.19-2.19c1.21,0,2.19,0.98,2.19,2.19
		C94.32,32.03,93.34,33.01,92.13,33.01z"/>
	<path class="st1" d="M92.13,52.69c-1.21,0-2.19-0.98-2.19-2.19c0-1.21,0.98-2.19,2.19-2.19c1.21,0,2.19,0.98,2.19,2.19
		C94.32,51.72,93.34,52.69,92.13,52.69z"/>
	<path class="st1" d="M92.13,72.38c-1.21,0-2.19-0.98-2.19-2.19c0-1.21,0.98-2.19,2.19-2.19c1.21,0,2.19,0.98,2.19,2.19
		C94.32,71.4,93.34,72.38,92.13,72.38z"/>
	<path class="st1" d="M92.13,92.06c-1.21,0-2.19-0.98-2.19-2.19c0-1.21,0.98-2.19,2.19-2.19c1.21,0,2.19,0.98,2.19,2.19
		C94.32,91.08,93.34,92.06,92.13,92.06z"/>
	<path class="st1" d="M72.45,13.33c-1.21,0-2.19-0.98-2.19-2.19c0-1.21,0.98-2.19,2.19-2.19c1.21,0,2.19,0.98,2.19,2.19
		C74.64,12.35,73.66,13.33,72.45,13.33z"/>
	<path class="st1" d="M72.45,33.01c-1.21,0-2.19-0.98-2.19-2.18c0-1.21,0.98-2.19,2.19-2.19c1.21,0,2.19,0.98,2.19,2.19
		C74.64,32.03,73.66,33.01,72.45,33.01z"/>
	<path class="st1" d="M72.45,52.69c-1.21,0-2.19-0.98-2.19-2.19c0-1.21,0.98-2.19,2.19-2.19c1.21,0,2.19,0.98,2.19,2.19
		C74.64,51.72,73.66,52.69,72.45,52.69z"/>
	<path class="st1" d="M72.45,72.38c-1.21,0-2.19-0.98-2.19-2.19c0-1.21,0.98-2.19,2.19-2.19c1.21,0,2.19,0.98,2.19,2.19
		C74.64,71.4,73.66,72.38,72.45,72.38z"/>
	<path class="st1" d="M72.45,92.06c-1.21,0-2.19-0.98-2.19-2.19c0-1.21,0.98-2.19,2.19-2.19c1.21,0,2.19,0.98,2.19,2.19
		C74.64,91.08,73.66,92.06,72.45,92.06z"/>
	<circle class="st1" cx="52.77" cy="11.14" r="2.19"/>
	<path class="st1" d="M52.77,33.01c-1.21,0-2.19-0.98-2.19-2.18c0-1.21,0.98-2.19,2.19-2.19s2.19,0.98,2.19,2.19
		C54.95,32.03,53.98,33.01,52.77,33.01z"/>
	<path class="st1" d="M52.77,52.69c-1.21,0-2.19-0.98-2.19-2.19c0-1.21,0.98-2.19,2.19-2.19s2.19,0.98,2.19,2.19
		C54.95,51.72,53.98,52.69,52.77,52.69z"/>
	<path class="st1" d="M52.77,72.38c-1.21,0-2.19-0.98-2.19-2.19c0-1.21,0.98-2.19,2.19-2.19s2.19,0.98,2.19,2.19
		C54.95,71.4,53.98,72.38,52.77,72.38z"/>
	<path class="st1" d="M52.77,92.06c-1.21,0-2.19-0.98-2.19-2.19c0-1.21,0.98-2.19,2.19-2.19s2.19,0.98,2.19,2.19
		C54.95,91.08,53.98,92.06,52.77,92.06z"/>
	<path class="st1" d="M33.09,13.33c-1.21,0-2.19-0.98-2.19-2.19c0-1.21,0.98-2.19,2.19-2.19c1.21,0,2.19,0.98,2.19,2.19
		C35.27,12.35,34.29,13.33,33.09,13.33z"/>
	<path class="st1" d="M33.09,33.01c-1.21,0-2.19-0.98-2.19-2.18c0-1.21,0.98-2.19,2.19-2.19c1.21,0,2.19,0.98,2.19,2.19
		C35.27,32.03,34.29,33.01,33.09,33.01z"/>
	<path class="st1" d="M33.09,52.69c-1.21,0-2.19-0.98-2.19-2.19c0-1.21,0.98-2.19,2.19-2.19c1.21,0,2.19,0.98,2.19,2.19
		C35.27,51.72,34.29,52.69,33.09,52.69z"/>
	<path class="st1" d="M33.09,72.38c-1.21,0-2.19-0.98-2.19-2.19c0-1.21,0.98-2.19,2.19-2.19c1.21,0,2.19,0.98,2.19,2.19
		C35.27,71.4,34.29,72.38,33.09,72.38z"/>
	<path class="st1" d="M33.09,92.06c-1.21,0-2.19-0.98-2.19-2.19c0-1.21,0.98-2.19,2.19-2.19c1.21,0,2.19,0.98,2.19,2.19
		C35.27,91.08,34.29,92.06,33.09,92.06z"/>
	<circle class="st1" cx="13.4" cy="11.14" r="2.19"/>
	<path class="st1" d="M13.4,33.01c-1.21,0-2.19-0.98-2.19-2.18c0-1.21,0.98-2.19,2.19-2.19c1.21,0,2.19,0.98,2.19,2.19
		C15.59,32.03,14.61,33.01,13.4,33.01z"/>
	<path class="st1" d="M13.4,52.69c-1.21,0-2.19-0.98-2.19-2.19c0-1.21,0.98-2.19,2.19-2.19c1.21,0,2.19,0.98,2.19,2.19
		C15.59,51.72,14.61,52.69,13.4,52.69z"/>
	<path class="st1" d="M13.4,72.38c-1.21,0-2.19-0.98-2.19-2.19c0-1.21,0.98-2.19,2.19-2.19c1.21,0,2.19,0.98,2.19,2.19
		C15.59,71.4,14.61,72.38,13.4,72.38z"/>
	<path class="st1" d="M13.4,92.06c-1.21,0-2.19-0.98-2.19-2.19c0-1.21,0.98-2.19,2.19-2.19c1.21,0,2.19,0.98,2.19,2.19
		C15.59,91.08,14.61,92.06,13.4,92.06z"/>
</g>
</svg>
