<?xml version="1.0" encoding="utf-8"?>
<!-- Generator: Adobe Illustrator 24.3.0, SVG Export Plug-In . SVG Version: 6.00 Build 0)  -->
<svg version="1.1" id="Layer_1" xmlns="http://www.w3.org/2000/svg" xmlns:xlink="http://www.w3.org/1999/xlink" x="0px" y="0px"
	 viewBox="0 0 210.2 43.7" style="enable-background:new 0 0 210.2 43.7;" xml:space="preserve">
<style type="text/css">
	.st0{fill:#222222;}
	.st1{font-family:'YDIYMjO360';}
	.st2{font-size:21.9764px;}
</style>
<g id="그룹_28" transform="translate(-12.629 -8.373)">
	<g id="그룹_24" transform="translate(12.629 8.373)">
		<path id="패스_78" class="st0" d="M36.5,27.6h5C41,28.5,40,29,39,29C38,29,37,28.5,36.5,27.6 M22.9,31.2c-1-1.7-1.5-3.6-1.5-5.6
			l9.9,0c-0.6,1.1-1.3,2.1-2.2,2.9C27.4,30.1,25.2,31,22.9,31.2 M19,25.4c0,2,0.4,4.1,1.3,5.9c-2.9,0-5.7-1.2-7.7-3.3
			c-2.1-2.3-3.3-5.3-3.2-8.5c-0.1-3.2,1-6.3,3.2-8.6c2.2-2.3,5.2-3.5,8.3-3.4c3,0,5.4,0.7,7.2,2.1c1,0.8,1.9,1.6,2.6,2.6
			c-3.1,0.2-6,1.5-8.1,3.8C20.2,18.6,18.9,21.9,19,25.4 M32.3,14.1c2.7,0,5.3,0.9,7.4,2.7c2.2,1.7,3.4,4.3,3.4,7.1h-9.3v-4.4H22.7
			c0.5-1,1.3-1.8,2.1-2.6C26.9,15,29.5,14,32.3,14.1 M32.1,22.9c0,0.3,0,0.6-0.1,0.9H21.6c0-1,0.2-2.1,0.5-3h10V22.9z M31.9,27.7
			l0,4.5h1.8v-6.6l11.9,0c0.1-4.1-1.2-7.4-3.8-9.8c-2.5-2.2-5.7-3.5-9-3.6C32,11,31,9.9,29.9,8.9c-2.1-2-5.1-3-9.1-3
			c-4.1,0-7.4,1.3-9.9,3.8c-2.5,2.6-3.8,6-3.7,9.6C7.1,23,8.4,26.5,10.9,29c2.4,2.6,5.8,3.8,9.9,3.8c0.1,0,0.2,0,0.3,0
			c0.4,0.7,0.9,1.3,1.4,1.8c2.4,2.6,5.6,3.9,9.7,4c3.5,0,6.3-0.8,8.3-2.4c1.7-1.3,3-3,3.9-4.9l-2.6,0c-0.6,1.6-1.7,2.9-3.2,3.8
			c-1.5,1-3.7,1.6-6.4,1.6c-2.7-0.1-5.3-1.2-7.3-3c-0.4-0.3-0.7-0.7-1.1-1.1c1.1-0.2,2.3-0.6,3.3-1.1C29.1,30.7,30.8,29.4,31.9,27.7
			"/>
	</g>
</g>
<text transform="matrix(1 0 0 1 52.4325 27.9602)" class="st0 st1 st2">GEPADONGSU</text>
</svg>
