<?xml version="1.0" encoding="utf-8"?>
<!-- Generator: Adobe Illustrator 24.3.0, SVG Export Plug-In . SVG Version: 6.00 Build 0)  -->
<svg version="1.1" id="Layer_1" xmlns="http://www.w3.org/2000/svg" xmlns:xlink="http://www.w3.org/1999/xlink" x="0px" y="0px"
	 viewBox="0 0 210.18 43.7" style="enable-background:new 0 0 210.18 43.7;" xml:space="preserve">
<style type="text/css">
	.st0{fill:#FFFFFF;}
	.st1{font-family:'YDIYMjO360';}
	.st2{font-size:21.9764px;}
</style>
<g id="그룹_28" transform="translate(-12.629 -8.373)">
	<g id="그룹_24" transform="translate(12.629 8.373)">
		<path id="패스_78" class="st0" d="M36.48,27.57h4.96c-0.47,0.91-1.41,1.46-2.42,1.43C37.98,29.01,37.01,28.47,36.48,27.57
			 M22.91,31.22c-0.99-1.69-1.5-3.62-1.47-5.58l9.93-0.02c-0.58,1.09-1.34,2.07-2.24,2.9C27.41,30.09,25.23,31.04,22.91,31.22
			 M18.97,25.39c-0.02,2.05,0.42,4.08,1.29,5.94c-2.92-0.02-5.7-1.22-7.72-3.34c-2.15-2.28-3.31-5.33-3.21-8.47
			c-0.11-3.19,1.04-6.3,3.21-8.64c2.16-2.26,5.17-3.49,8.28-3.38c3,0,5.41,0.72,7.24,2.15c0.99,0.76,1.88,1.64,2.64,2.63
			c-3.09,0.18-6,1.54-8.13,3.8C20.2,18.59,18.91,21.93,18.97,25.39 M32.28,14.1c2.7,0,5.31,0.95,7.39,2.69
			c2.17,1.69,3.43,4.3,3.4,7.06h-9.28v-4.37H22.72c0.55-0.97,1.26-1.83,2.09-2.57C26.85,15.03,29.52,14.03,32.28,14.1 M32.06,22.9
			c0,0.32-0.03,0.63-0.09,0.94H21.56c0.01-1.04,0.19-2.07,0.54-3.04h9.96V22.9z M31.93,27.71l0.04,4.48h1.81v-6.58l11.87-0.03
			c0.1-4.1-1.17-7.36-3.83-9.78c-2.46-2.25-5.66-3.53-8.99-3.58c-0.85-1.21-1.82-2.32-2.91-3.32c-2.07-1.97-5.11-2.96-9.1-2.96
			c-4.11,0-7.41,1.28-9.88,3.83c-2.49,2.56-3.84,6.03-3.73,9.62c-0.11,3.59,1.21,7.07,3.68,9.66c2.45,2.56,5.76,3.84,9.94,3.84
			c0.11,0,0.21,0,0.31,0c0.43,0.65,0.9,1.27,1.43,1.84c2.39,2.6,5.63,3.92,9.72,3.95c3.55,0.03,6.31-0.76,8.26-2.37
			c1.69-1.29,3.04-2.97,3.93-4.9l-2.64-0.05c-0.63,1.57-1.74,2.9-3.17,3.8c-1.55,1.05-3.68,1.58-6.38,1.58
			c-2.73-0.08-5.33-1.16-7.3-3.05c-0.38-0.34-0.74-0.7-1.07-1.08c1.14-0.23,2.26-0.58,3.33-1.06C29.12,30.73,30.75,29.4,31.93,27.71
			"/>
	</g>
</g>
<text transform="matrix(1 0 0 1 52.4325 27.9602)" class="st0 st1 st2">GEPADONGSU</text>
</svg>
