<?xml version="1.0" ?><!DOCTYPE svg  PUBLIC '-//W3C//DTD SVG 1.1//EN'  'http://www.w3.org/Graphics/SVG/1.1/DTD/svg11.dtd'><svg enable-background="new 0 0 24 24" height="24px" id="Layer_1" version="1.1" viewBox="0 0 24 24" width="24px" xml:space="preserve" xmlns="http://www.w3.org/2000/svg" xmlns:xlink="http://www.w3.org/1999/xlink"><g><path d="M12,0C6.5,0,2,4.5,2,10s3,7,10,14c7-7,10-8.5,10-14S17.5,0,12,0z M12,21.5c-5-5-8-7.1-8-11.5s3.6-8,8-8s8,3.6,8,8   S17,16.5,12,21.5z"/><path d="M12,6c-2.2,0-4,1.8-4,4s1.8,4,4,4s4-1.8,4-4S14.2,6,12,6z M12,13c-1.7,0-3-1.3-3-3s1.3-3,3-3s3,1.3,3,3S13.7,13,12,13z"/></g></svg>