<?xml version="1.0" ?><!DOCTYPE svg  PUBLIC '-//W3C//DTD SVG 1.1//EN'  'http://www.w3.org/Graphics/SVG/1.1/DTD/svg11.dtd'><svg enable-background="new 0 0 24 24" height="24px" id="Layer_1" version="1.1" viewBox="0 0 24 24" width="24px" xml:space="preserve" xmlns="http://www.w3.org/2000/svg" xmlns:xlink="http://www.w3.org/1999/xlink"><path d="M2,1l2,7l-4,8l2,7c0,0.6,0.4,1,1,1h18c0.6,0,1-0.4,1-1l-2-7l4-8l-2-7c0-0.6-0.4-1-1-1H3C2.4,0,2,0.4,2,1z M5.5,9h16l-3,6  h-16L5.5,9z M20,22H4l-2-6h16L20,22z M20,2l2,6H6L4,2H20z"/></svg>