<?xml version="1.0" encoding="utf-8"?>
<!-- Generator: Adobe Illustrator 16.0.0, SVG Export Plug-In . SVG Version: 6.00 Build 0)  -->
<!DOCTYPE svg PUBLIC "-//W3C//DTD SVG 1.1//EN" "http://www.w3.org/Graphics/SVG/1.1/DTD/svg11.dtd">
<svg version="1.1" id="Layer_1" xmlns="http://www.w3.org/2000/svg" xmlns:xlink="http://www.w3.org/1999/xlink" x="0px" y="0px"
	 width="454.434px" height="733.928px" viewBox="0 0 454.434 733.928" enable-background="new 0 0 454.434 733.928"
	 xml:space="preserve">
<linearGradient id="SVGID_1_" gradientUnits="userSpaceOnUse" x1="1050.1885" y1="328.5586" x2="1836.01" y2="1138.0375">
	<stop  offset="0" style="stop-color:#08D6F7"/>
	<stop  offset="1" style="stop-color:#06BBF9"/>
</linearGradient>
<path fill="url(#SVGID_1_)" d="M1021.937,276h1153c0,0-63.136,81.316-108,156.31c-124.382,207.911-131.819,393.615-94,518
	c90,296,160,268,170,560.314h-1121V276z"/>
<path fill="#FFFFFF" d="M-178.491-55.032h551.973c0,0-92.12,127.513-61.271,245.121c23.999,91.496,65.727,261.221-66.273,399.221
	c-27.214,28.451-66,64.505-66,165c0,251.583,140.497-6.403,150.497,225.606h-502L-178.491-55.032z"/>
</svg>
